# xmcd CD database file
#
# Track frame offsets:
#	150
#	16180
#	32378
#	39668
#	57004
#	68802
#	77177
#	96320
#	112296
#
# Disc length: 1690 seconds
#
# Revision: 0
# Processed by: cddbd v1.5.2PL0 Copyright (c) Steve Scherf et al.
# Submitted via: CDex 1.51
#
DISCID=6f069809
DTITLE=Catalina - Mystical Journey
DYEAR=2000
DGENRE=New Age
TTITLE0=Brian Boru's March
TTITLE1=Spagnletta
TTITLE2=Douce Dame Jolie
TTITLE3=Quant JeVoy Yver Reformer
TTITLE4=Jock O'Hazeldean
TTITLE5=Nonesuch
TTITLE6=Roslyn Castle
TTITLE7=Scarborough Fair
TTITLE8=Mystical Journey
EXTD=YEAR: 2000
EXTT0=
EXTT1=
EXTT2=
EXTT3=
EXTT4=
EXTT5=
EXTT6=
EXTT7=
EXTT8=
PLAYORDER=
